<svg height="1102" width="720" xmlns="http://www.w3.org/2000/svg">
<rect height="1102" fill="#555" width="720"></rect>
<text fill="#7f7" font-family="Courier New" font-size="12" xml:space="preserve">
<tspan x="10" y="26">└─┬ gulp-sftp@0.1.5 </tspan>
<tspan x="10" y="42">  ├── async@0.9.2 </tspan>
<tspan x="10" y="58">  ├─┬ gulp-util@3.0.8 </tspan>
<tspan x="10" y="74">  │ ├── array-differ@1.0.0 </tspan>
<tspan x="10" y="90">  │ ├── array-uniq@1.0.3 </tspan>
<tspan x="10" y="106">  │ ├── beeper@1.1.1 </tspan>
<tspan x="10" y="122">  │ ├─┬ chalk@1.1.3 </tspan>
<tspan x="10" y="138">  │ │ ├── ansi-styles@2.2.1 </tspan>
<tspan x="10" y="154">  │ │ ├── escape-string-regexp@1.0.5 </tspan>
<tspan x="10" y="170">  │ │ ├─┬ has-ansi@2.0.0 </tspan>
<tspan x="10" y="186">  │ │ │ └── ansi-regex@2.1.1 </tspan>
<tspan x="10" y="202">  │ │ ├── strip-ansi@3.0.1 </tspan>
<tspan x="10" y="218">  │ │ └── supports-color@2.0.0 </tspan>
<tspan x="10" y="234">  │ ├── dateformat@2.0.0 </tspan>
<tspan x="10" y="250">  │ ├─┬ fancy-log@1.3.0 </tspan>
<tspan x="10" y="266">  │ │ └── time-stamp@1.0.1 </tspan>
<tspan x="10" y="282">  │ ├─┬ gulplog@1.0.0 </tspan>
<tspan x="10" y="298">  │ │ └── glogg@1.0.0 </tspan>
<tspan x="10" y="314">  │ ├─┬ has-gulplog@0.1.0 </tspan>
<tspan x="10" y="330">  │ │ └── sparkles@1.0.0 </tspan>
<tspan x="10" y="346">  │ ├── lodash._reescape@3.0.0 </tspan>
<tspan x="10" y="362">  │ ├── lodash._reevaluate@3.0.0 </tspan>
<tspan x="10" y="378">  │ ├── lodash._reinterpolate@3.0.0 </tspan>
<tspan x="10" y="394">  │ ├─┬ lodash.template@3.6.2 </tspan>
<tspan x="10" y="410">  │ │ ├── lodash._basecopy@3.0.1 </tspan>
<tspan x="10" y="426">  │ │ ├── lodash._basetostring@3.0.1 </tspan>
<tspan x="10" y="442">  │ │ ├── lodash._basevalues@3.0.0 </tspan>
<tspan x="10" y="458">  │ │ ├── lodash._isiterateecall@3.0.9 </tspan>
<tspan x="10" y="474">  │ │ ├─┬ lodash.escape@3.2.0 </tspan>
<tspan x="10" y="490">  │ │ │ └── lodash._root@3.0.1 </tspan>
<tspan x="10" y="506">  │ │ ├─┬ lodash.keys@3.1.2 </tspan>
<tspan x="10" y="522">  │ │ │ ├── lodash._getnative@3.9.1 </tspan>
<tspan x="10" y="538">  │ │ │ ├── lodash.isarguments@3.1.0 </tspan>
<tspan x="10" y="554">  │ │ │ └── lodash.isarray@3.0.4 </tspan>
<tspan x="10" y="570">  │ │ ├── lodash.restparam@3.6.1 </tspan>
<tspan x="10" y="586">  │ │ └── lodash.templatesettings@3.1.1 </tspan>
<tspan x="10" y="602">  │ ├── minimist@1.2.0 </tspan>
<tspan x="10" y="618">  │ ├─┬ multipipe@0.1.2 </tspan>
<tspan x="10" y="634">  │ │ └─┬ duplexer2@0.0.2 </tspan>
<tspan x="10" y="650">  │ │   └── readable-stream@1.1.14 </tspan>
<tspan x="10" y="666">  │ ├── object-assign@3.0.0 </tspan>
<tspan x="10" y="682">  │ ├── replace-ext@0.0.1 </tspan>
<tspan x="10" y="698">  │ ├─┬ through2@2.0.3 </tspan>
<tspan x="10" y="714">  │ │ ├─┬ readable-stream@2.2.6 </tspan>
<tspan x="10" y="730">  │ │ │ ├── buffer-shims@1.0.0 </tspan>
<tspan x="10" y="746">  │ │ │ ├── isarray@1.0.0 </tspan>
<tspan x="10" y="762">  │ │ │ ├── process-nextick-args@1.0.7 </tspan>
<tspan x="10" y="778">  │ │ │ └── util-deprecate@1.0.2 </tspan>
<tspan x="10" y="794">  │ │ └── xtend@4.0.1 </tspan>
<tspan x="10" y="810">  │ └─┬ vinyl@0.5.3 </tspan>
<tspan x="10" y="826">  │   ├── clone@1.0.2 </tspan>
<tspan x="10" y="842">  │   └── clone-stats@0.0.1 </tspan>
<tspan x="10" y="858">  ├── object-assign@0.3.1 </tspan>
<tspan x="10" y="874">  ├─┬ parents@1.0.1 </tspan>
<tspan x="10" y="890">  │ └── path-platform@0.11.15 </tspan>
<tspan x="10" y="906">  ├─┬ ssh2@0.3.6 </tspan>
<tspan x="10" y="922">  │ ├── asn1@0.2.1 </tspan>
<tspan x="10" y="938">  │ ├─┬ readable-stream@1.0.27-1 </tspan>
<tspan x="10" y="954">  │ │ ├── core-util-is@1.0.2 </tspan>
<tspan x="10" y="970">  │ │ ├── inherits@2.0.3 </tspan>
<tspan x="10" y="986">  │ │ ├── isarray@0.0.1 </tspan>
<tspan x="10" y="1002">  │ │ └── string_decoder@0.10.31 </tspan>
<tspan x="10" y="1018">  │ └── streamsearch@0.1.2 </tspan>
<tspan x="10" y="1034">  └─┬ through2@0.4.2 </tspan>
<tspan x="10" y="1050">    ├── readable-stream@1.0.34 </tspan>
<tspan x="10" y="1066">    └─┬ xtend@2.1.2 </tspan>
<tspan x="10" y="1082">      └── object-keys@0.4.0</tspan>
</text>
</svg>
